<svg width="343" height="263" viewBox="0 0 343 263" fill="none" xmlns="http://www.w3.org/2000/svg">
<path d="M120 57.5L121.5 52.5L123.5 48L125.5 44L128 39L131.5 34L136 28L140 23.5L141.5 21.5L144 19.5L147.5 17L152 14L158.5 10L164 7L168.5 5L173 3L177 2L182.5 1L188.5 0.5L198 0H204.5L209.5 0.5L213.5 1L216 2L217 2.5L218 3.5L218.5 4.5V7L217.5 9.5L216 11L214 12L207 13L202.5 14L198.5 15.5L193 18L188 20.5L183.5 23.5L180 26L175 30L169.5 35.5L166 39L163 43L160.5 47L158 51.5L155.5 56.5L153 62.5L151 68.5L150 72.5L149 78L148.5 82L148 88.5V96.5V102.5L148.5 106.5L149 110.5L150 115.5L151.5 119.5L153 122.5L154 124.5L155.5 127.5L157 130L160.5 135L163 138L165 140.5L169 144.5L171 146.5L172.5 149L173 150.5V152L172.5 153.5L171 155L168.5 155.5L166.5 155L164 154L160.5 152L153 147L146 141.5L140 136.5L135.5 131.5L131 125L127 118.5L124.5 113.5L122.5 108.5L120 102.5L119 99L118 94L117.5 89L117 85.5V81.5V79V75L117.5 69.5L118.5 64L119 61.5L120 57.5Z" fill="#36D4F9"/>
<path d="M222.5 205L221 210L219 214.5L217 218.5L214.5 223.5L211 228.5L206.5 234.5L202.5 239L201 241L198.5 243L195 245.5L190.5 248.5L184 252.5L178.5 255.5L174 257.5L169.5 259.5L165.5 260.5L160 261.5L154 262L144.5 262.5H138L133 262L129 261.5L126.5 260.5L125.5 260L124.5 259L124 258V255.5L125 253L126.5 251.5L128.5 250.5L135.5 249.5L140 248.5L144 247L149.5 244.5L154.5 242L159 239L162.5 236.5L167.5 232.5L173 227L176.5 223.5L179.5 219.5L182 215.5L184.5 211L187 206L189.5 200L191.5 194L192.5 190L193.5 184.5L194 180.5L194.5 174V166V160L194 156L193.5 152L192.5 147L191 143L189.5 140L188.5 138L187 135L185.5 132.5L182 127.5L179.5 124.5L177.5 122L173.5 118L171.5 116L170 113.5L169.5 112V110.5L170 109L171.5 107.5L174 107L176 107.5L178.5 108.5L182 110.5L189.5 115.5L196.5 121L202.5 126L207 131L211.5 137.5L215.5 144L218 149L220 154L222.5 160L223.5 163.5L224.5 168.5L225 173.5L225.5 177V181V183.5V187.5L225 193L224 198.5L223.5 201L222.5 205Z" fill="#36D4F9"/>
<path d="M2.5 129.5L3.5 126.5L5 124L7.5 120.5L10 117.5L14 113.5L17.5 110.5L22.5 107.5L29.5 104.5L34.5 103L49.5 102H66H82.5H90H96.5L99 102.5L101 103.5L102.5 104.5L103.5 106.5L104 109V111.5L103.5 113L103 114L102 115L100.5 115.5L99 116L96.5 116.5H66.5H36.224L34 117L32.5 117.5L31 118L29 119L27 120L25.5 121L24.5 122L23 123.5L21 125.5L19 128.5L17.5 131L16.5 133.5L16 135L15.5 137.5V143.5L16 147L17 150L18.5 153L22 156.5L25.5 159.5L29.5 162L32.5 163.5L35 164.5L37 165L88.5 165.5H97.5H100.5L102 166L103 166.5L103.5 167L104 168L104.5 169.5L105 171.5V173V174L104.5 176L104 177L102.5 178.5L100.5 179L87 179.5L31 178.5L28.5 178L25.5 177L22.5 175.5L19 173.5L15 170.5L11 167L7 163L4.5 159.5L3 156L1.5 151.5L0.5 147L0 142V137L1 133L2.5 129.5Z" fill="white"/>
<path d="M340.5 152L339.5 155L338 157.5L335.5 161L333 164L329 168L325.5 171L320.5 174L313.5 177L308.5 178.5L293.5 179.5H277H260.5H253H246.5L244 179L242 178L240.5 177L239.5 175L239 172.5V170L239.5 168.5L240 167.5L241 166.5L242.5 166L244 165.5L246.5 165H276.5H306.776L309 164.5L310.5 164L312 163.5L314 162.5L316 161.5L317.5 160.5L318.5 159.5L320 158L322 156L324 153L325.5 150.5L326.5 148L327 146.5L327.5 144V138L327 134.5L326 131.5L324.5 128.5L321 125L317.5 122L313.5 119.5L310.5 118L308 117L306 116.5L254.5 116H245.5H242.5L241 115.5L240 115L239.5 114.5L239 113.5L238.5 112L238 110V108.5V107.5L238.5 105.5L239 104.5L240.5 103L242.5 102.5L256 102L312 103L314.5 103.5L317.5 104.5L320.5 106L324 108L328 111L332 114.5L336 118.5L338.5 122L340 125.5L341.5 130L342.5 134.5L343 139.5V144.5L342 148.5L340.5 152Z" fill="white"/>
</svg>
